<svg xmlns="http://www.w3.org/2000/svg" width="22" height="20" viewBox="0 0 22 20">
    <path fill="#4332A6" d="M3.333 0C2.106 0 1.111.994 1.111 2.222V8.89c0 .613.498 1.111 1.111 1.111.614 0 1.111-.498 1.111-1.111V4.444h15.558l-.002 13.334h-3.333c-.614 0-1.112.498-1.112 1.11 0 .614.498 1.112 1.112 1.112h3.333c1.228 0 2.222-.994 2.222-2.222V2.222C21.111.994 20.117 0 18.89 0H3.333zm11.111 10c-1.227 0-2.222.994-2.222 2.222 0 .285.057.555.154.805l-2.044 2.557c-.11-.018-.22-.027-.332-.028-.194 0-.388.025-.575.076L7.7 13.906c.05-.187.077-.38.078-.573 0-1.227-.995-2.222-2.222-2.222-1.228 0-2.223.995-2.223 2.222.001.277.053.55.154.808L.243 18.194c-.248.31-.312.73-.168 1.1.145.37.476.634.869.694.392.06.787-.094 1.035-.405l3.245-4.056c.11.018.22.027.332.029.194 0 .387-.026.575-.076l1.725 1.725c-.051.187-.077.38-.078.573C7.778 19.005 8.773 20 10 20c1.227 0 2.222-.995 2.222-2.222 0-.277-.053-.55-.154-.808l2.049-2.558c.108.016.215.032.327.032 1.228 0 2.223-.994 2.223-2.222S15.672 10 14.444 10z"/>
</svg>
