<svg xmlns="http://www.w3.org/2000/svg" width="18" height="23" viewBox="0 0 18 23">
    <path fill="#4332A6" d="M8.762 0c-.605 0-1.095.49-1.095 1.095V2.19h2.19V1.095C9.857.491 9.367 0 8.762 0zm1.095 2.19v1.096c0 .604-.49 1.095-1.095 1.095s-1.095-.49-1.095-1.095V2.19H2.19C.98 2.19 0 3.17 0 4.381V20.81C0 22.02.98 23 2.19 23h13.143c1.21 0 2.19-.98 2.19-2.19V4.38c0-1.21-.98-2.19-2.19-2.19H9.857zm2.511 7.346c.28 0 .561.108.775.321.427.427.427 1.122 0 1.549L8.44 16.108c-.427.427-1.122.427-1.549 0l-2.511-2.512c-.427-.427-.427-1.121 0-1.548.427-.428 1.122-.428 1.549 0l1.737 1.737 3.927-3.928c.214-.213.494-.32.774-.32z"/>
</svg>
