<svg xmlns="http://www.w3.org/2000/svg" width="30" height="30" viewBox="0 0 30 30">
    <defs>
        <linearGradient id="prefix__a" x1="50%" x2="50%" y1="0%" y2="100%">
            <stop offset="0%" stop-color="#7861D2"/>
            <stop offset="100%" stop-color="#4332A6"/>
        </linearGradient>
    </defs>
    <path fill="url(#prefix__a)" d="M12 0L8.21 2.06 12 4.117l3.79-2.059L12 0zM7.579 3.07v4.118l3.79 2.06V5.167L7.578 3.07zm8.842 0l-3.79 2.097v4.08l3.79-2.059V3.07zM6.316 4.942L1.263 6.74v4.568L3.79 9.922V8.387l2.527-.899V4.942zm11.368 0v2.546l2.527.899v1.535l2.526 1.385V6.739l-5.053-1.797zM4.421 11.12l-3.79 2.059 3.79 2.06 3.79-2.06-3.79-2.06zm15.158 0l-3.79 2.059 3.79 2.06 3.79-2.06-3.79-2.06zM0 14.227v4.081l3.79 2.06v-4.082L0 14.227zm8.842 0l-3.79 2.06v4.08l3.79-2.059v-4.08zm6.316 0v4.081l3.79 2.06v-4.082l-3.79-2.059zm8.842 0l-3.79 2.06v4.08L24 18.308v-4.08zM8.605 19.656l-2.644 1.423L12 23.962l6.04-2.883-2.645-1.423L12 21.266l-3.395-1.61z" transform="translate(3 3)"/>
</svg>
