<svg xmlns="http://www.w3.org/2000/svg" width="30" height="30" viewBox="0 0 30 30">
    <defs>
        <linearGradient id="prefix__a" x1="50%" x2="50%" y1="0%" y2="100%">
            <stop offset="0%" stop-color="#7861D2"/>
            <stop offset="100%" stop-color="#4332A6"/>
        </linearGradient>
    </defs>
    <path fill="url(#prefix__a)" d="M2.182 0C.979 0 0 1.025 0 2.286v16c0 1.26.979 2.285 2.182 2.285h8.727v-7.835c0-1.981 1.527-3.593 3.405-3.593.576 0 1.15.157 1.655.455l4.575 2.692 1.274.748V2.286c0-1.26-.978-2.286-2.182-2.286H2.182zm.002 2.286h2.18V4.57h-2.18V2.286zm15.27 0h2.182V4.57h-2.181V2.286zM2.183 6.857h2.182v2.286H2.182V6.857zm15.273 0h2.181v2.286h-2.181V6.857zM2.182 11.43h2.182v2.285H2.182V11.43zm12.094 0c-.624.021-1.185.562-1.185 1.308v9.955c0 .994.995 1.624 1.809 1.145l8.467-4.978c.845-.497.845-1.794 0-2.29L14.9 11.592c-.204-.12-.417-.17-.624-.163zM2.182 16h2.182v2.286H2.182V16z" transform="translate(3 3)"/>
</svg>
