<svg xmlns="http://www.w3.org/2000/svg" width="24" height="22" viewBox="0 0 24 22">
    <path fill="#4332A6" d="M12-.021c-.722 0-1.443.146-2.12.439L.46 4.5c-.601.277-.617 1.126-.026 1.426l3.548 1.799v.312c-.923 1.868-1.841 5.6-1.968 9.943-.015.56.445 1.02 1.004 1.02H6.18c1.194 1.468 3.082 3 5.82 3 2.738 0 4.626-1.532 5.82-3h3.162c.56 0 1.02-.46 1.002-1.02-.127-4.344-1.045-8.075-1.968-9.943v-.312L22 6.72V10c0 .552.448 1 1 1s1-.448 1-1V5.291l-.01-.002c.027-.312-.12-.636-.45-.789L14.12.418c-.677-.293-1.398-.44-2.12-.44zM8 10h8c1.1 0 2 .9 2 2v1c0 1.397-.374 2.534-.85 3.443C16.423 17.705 14.732 20 12 20s-4.423-2.295-5.15-3.557C6.374 15.534 6 14.397 6 13v-1c0-1.105.895-2 2-2z"/>
</svg>
