<svg xmlns="http://www.w3.org/2000/svg" width="23" height="18" viewBox="0 0 23 18">
    <path fill="#4332A6" fill-rule="evenodd" d="M3.375 0c-1.237 0-2.25 1.012-2.25 2.25v9c0 1.238 1.013 2.25 2.25 2.25h15.75c1.238 0 2.25-1.012 2.25-2.25v-9c0-1.238-1.012-2.25-2.25-2.25H3.375zM6.75 3.375h9c.621 0 1.125.504 1.125 1.125s-.504 1.125-1.125 1.125h-9c-.621 0-1.125-.504-1.125-1.125s.504-1.125 1.125-1.125zm0 4.5h5.625c.621 0 1.125.504 1.125 1.125s-.504 1.125-1.125 1.125H6.75c-.621 0-1.125-.504-1.125-1.125s.504-1.125 1.125-1.125zM1.125 15.75C.504 15.75 0 16.254 0 16.875S.504 18 1.125 18h20.25c.621 0 1.125-.504 1.125-1.125s-.504-1.125-1.125-1.125H1.125z"/>
</svg>
