<?xml version="1.0" encoding="UTF-8"?>
<svg width="23px" height="18px" viewBox="0 0 23 18" version="1.1" xmlns="http://www.w3.org/2000/svg" xmlns:xlink="http://www.w3.org/1999/xlink">
    <!-- Generator: sketchtool 62 (101010) - https://sketch.com -->
    <title>60F94B6F-305D-4C7C-90F9-933996F2D33F</title>
    <desc>Created with sketchtool.</desc>
    <g id="Page-1" stroke="none" stroke-width="1" fill="none" fill-rule="evenodd">
        <g id="01_Teacher-View" transform="translate(-46.000000, -819.000000)" fill="#4332A6">
            <g id="Left-Menu" transform="translate(20.000000, 20.000000)">
                <g id="Day-learning" transform="translate(26.000000, 799.000000)">
                    <path d="M3.375,0 C2.1375,0 1.125,1.0125 1.125,2.25 L1.125,11.25 C1.125,12.4875 2.1375,13.5 3.375,13.5 L19.125,13.5 C20.3625,13.5 21.375,12.4875 21.375,11.25 L21.375,2.25 C21.375,1.0125 20.3625,0 19.125,0 L3.375,0 Z M6.75,3.375 L15.75,3.375 C16.371,3.375 16.875,3.879 16.875,4.5 C16.875,5.121 16.371,5.625 15.75,5.625 L6.75,5.625 C6.129,5.625 5.625,5.121 5.625,4.5 C5.625,3.879 6.129,3.375 6.75,3.375 Z M6.75,7.875 L12.375,7.875 C12.996,7.875 13.5,8.379 13.5,9 C13.5,9.621 12.996,10.125 12.375,10.125 L6.75,10.125 C6.129,10.125 5.625,9.621 5.625,9 C5.625,8.379 6.129,7.875 6.75,7.875 Z M1.125,15.75 C0.504,15.75 0,16.254 0,16.875 C0,17.496 0.504,18 1.125,18 L21.375,18 C21.996,18 22.5,17.496 22.5,16.875 C22.5,16.254 21.996,15.75 21.375,15.75 L1.125,15.75 Z" id="Shape"></path>
                </g>
            </g>
        </g>
    </g>
</svg>