<?xml version="1.0" encoding="UTF-8"?>
<svg width="18px" height="20px" viewBox="0 0 18 20" version="1.1" xmlns="http://www.w3.org/2000/svg" xmlns:xlink="http://www.w3.org/1999/xlink">
    <!-- Generator: sketchtool 62 (101010) - https://sketch.com -->
    <title>FCFB49B8-A05C-4A9C-8EAA-D92DC503C058</title>
    <desc>Created with sketchtool.</desc>
    <g id="Page-1" stroke="none" stroke-width="1" fill="none" fill-rule="evenodd">
        <g id="19-Teacher-Profile" transform="translate(-1195.000000, -883.000000)" fill="#F25244" fill-rule="nonzero">
            <g id="Delete-icon" transform="translate(1195.000000, 883.000000)">
                <g id="Shape">
                    <path d="M7,0 L6,1 L0,1 L0,3 L1.109375,3 L2.9023438,18.234375 C3.0195906,19.233954 3.8820006,20 4.8886719,20 L13.111328,20 C14.117999,20 14.980409,19.233954 15.097656,18.234375 L16.890625,3 L18,3 L18,1 L16,1 L12,1 L11,0 L7,0 Z M3.1230469,3 L4,3 L14.876953,3 L13.111328,18 L4.8886719,18 L3.1230469,3 Z M6,5 L6,15 C6,15.552 6.448,16 7,16 L8,16 L8,5 L6,5 Z M10,5 L10,16 L11,16 C11.552,16 12,15.552 12,15 L12,5 L10,5 Z"></path>
                </g>
            </g>
        </g>
    </g>
</svg>