<svg xmlns="http://www.w3.org/2000/svg" width="120" height="40" viewBox="0 0 120 40">
    <g fill="none" fill-rule="evenodd">
        <rect width="120" height="40" fill="#F1EFFF" rx="20" transform="matrix(-1 0 0 1 120 0)"/>
        <text fill="#4332A6" font-family="SourceSansPro-SemiBold, Source Sans Pro" font-size="14" font-weight="500">
            <tspan x="51.038" y="25"> Export</tspan>
        </text>
        <path fill="#4332A6" fill-rule="nonzero" d="M23 10c-1.094 0-2 .906-2 2v5c-1.105 0-2 .895-2 2v5c0 1.105.895 2 2 2v2c0 1.094.906 2 2 2h12c1.094 0 2-.906 2-2V15l-5-5h-9zm0 2h8v4h4v1H23v-5zm-1.975 7h1.248l.725 1.717.727-1.717h1.246l-1.268 2.479L25 24h-1.262l-.74-1.748L22.262 24H21l1.295-2.521L21.025 19zM26 19h1v4h2v1h-3v-5zm5.49 0c1.423.041 1.51 1.283 1.51 1.504h-.969c0-.103.018-.697-.558-.697-.175 0-.567.077-.537.56.029.443.611.652.718.7.224.081 1.333.575 1.342 1.583.002.214-.053 1.335-1.486 1.35-1.56.017-1.664-1.325-1.664-1.602h.974c0 .147.013.858.69.803.407-.034.496-.327.51-.545.023-.367-.328-.587-.698-.765-.52-.25-1.342-.558-1.357-1.532-.013-.877.631-1.384 1.525-1.359zM23 26h12v2H23v-2z"/>
    </g>
</svg>
