<?xml version="1.0" encoding="UTF-8"?>
<svg width="40px" height="40px" viewBox="0 0 40 40" version="1.1" xmlns="http://www.w3.org/2000/svg" xmlns:xlink="http://www.w3.org/1999/xlink">
    <!-- Generator: sketchtool 62 (101010) - https://sketch.com -->
    <title>695DE78E-0F5C-448C-9E34-75F4E4D298FC</title>
    <desc>Created with sketchtool.</desc>
    <g id="Page-1" stroke="none" stroke-width="1" fill="none" fill-rule="evenodd">
        <g id="04_-Content-Repository" transform="translate(-1290.000000, -169.000000)">
            <g id="Filter" transform="translate(1290.000000, 169.000000)">
                <rect id="Rectangle" fill="#FFFFFF" x="0" y="0" width="40" height="40" rx="10"></rect>
                <g id="icons8-sorting_answers" transform="translate(10.000000, 10.000000)" fill="#4332A6" fill-rule="nonzero">
                    <path d="M1.11111111,0 C0.497461389,0 0,0.497461389 0,1.11111111 C0,1.72476083 0.497461389,2.22222222 1.11111111,2.22222222 C1.72476083,2.22222222 2.22222222,1.72476083 2.22222222,1.11111111 C2.22222222,0.497461389 1.72476083,0 1.11111111,0 Z M4.44444444,0 L4.44444444,2.22222222 L20,2.22222222 L20,0 L4.44444444,0 Z M1.11111111,4.44444444 C0.497461389,4.44444444 0,4.94190583 0,5.55555556 C0,6.16920528 0.497461389,6.66666667 1.11111111,6.66666667 C1.72476083,6.66666667 2.22222222,6.16920528 2.22222222,5.55555556 C2.22222222,4.94190583 1.72476083,4.44444444 1.11111111,4.44444444 Z M4.44444444,4.44444444 L4.44444444,6.66666667 L17.7777778,6.66666667 L17.7777778,4.44444444 L4.44444444,4.44444444 Z M1.11111111,8.88888889 C0.497461389,8.88888889 0,9.38635028 0,10 C0,10.6136497 0.497461389,11.1111111 1.11111111,11.1111111 C1.72476083,11.1111111 2.22222222,10.6136497 2.22222222,10 C2.22222222,9.38635028 1.72476083,8.88888889 1.11111111,8.88888889 Z M4.44444444,8.88888889 L4.44444444,11.1111111 L15.5555556,11.1111111 L15.5555556,8.88888889 L4.44444444,8.88888889 Z M1.11111111,13.3333333 C0.497461389,13.3333333 0,13.8307947 0,14.4444444 C0,15.0580942 0.497461389,15.5555556 1.11111111,15.5555556 C1.72476083,15.5555556 2.22222222,15.0580942 2.22222222,14.4444444 C2.22222222,13.8307947 1.72476083,13.3333333 1.11111111,13.3333333 Z M4.44444444,13.3333333 L4.44444444,15.5555556 L13.3333333,15.5555556 L13.3333333,13.3333333 L4.44444444,13.3333333 Z M1.11111111,17.7777778 C0.497461389,17.7777778 0,18.2752392 0,18.8888889 C0,19.5025386 0.497461389,20 1.11111111,20 C1.72476083,20 2.22222222,19.5025386 2.22222222,18.8888889 C2.22222222,18.2752392 1.72476083,17.7777778 1.11111111,17.7777778 Z M4.44444444,17.7777778 L4.44444444,20 L11.1111111,20 L11.1111111,17.7777778 L4.44444444,17.7777778 Z" id="Shape"></path>
                </g>
            </g>
        </g>
    </g>
</svg>