<svg xmlns="http://www.w3.org/2000/svg" width="20" height="24" viewBox="0 0 20 24">
    <defs>
        <linearGradient id="prefix__a" x1="50%" x2="50%" y1="0%" y2="100%">
            <stop offset="0%" stop-color="#489E2D"/>
            <stop offset="100%" stop-color="#7EAA70"/>
        </linearGradient>
    </defs>
    <path fill="url(#prefix__a)" d="M10.5 0C9.12 0 8 1.12 8 2.5S9.12 5 10.5 5 13 3.88 13 2.5 11.88 0 10.5 0zm-7 5c-1.19 0-2.182.833-2.434 1.947L.078 10.91c-.046.19-.078.385-.078.59C0 12.881 1.119 14 2.5 14c.187 0 .366-.027.541-.066C3.026 13.789 3 13.647 3 13.5c0-.297.03-.597.09-.893l1.515-7.332C4.272 5.105 3.901 5 3.5 5zm14.992.992c-.132.002-.259.057-.351.152-.092.095-.143.223-.141.356v.998l-2.58 2.29-2.404-1.5c-.007.05-.009.098-.018.148l-.48 2.66c1.389.47 2.744.904 3.043.904.239 0 .477-.086.664-.252L18 10.172V23.5c-.003.18.092.348.248.439.156.09.348.09.504 0 .156-.091.25-.259.248-.439V9.285l.35-.31c.413-.367.45-1 .084-1.412-.121-.136-.274-.214-.434-.268V6.5c.002-.135-.05-.266-.146-.361-.096-.096-.226-.149-.362-.147zM8.498 6c-1.228 0-2.242.888-2.453 2.055l-.004.004-.988 4.93-.002.007V13c-.033.162-.051.329-.051.5 0 .771.357 1.451.906 1.91l.008.024L9.807 18.5l1.111 4.19.094.47c.078.485.497.84.988.84.552 0 1-.448 1-1 0-.066-.007-.131-.02-.195l-1-5c-.026-.136-.08-.264-.16-.377l-1.87-3.424.001-.027.983-4.915-.002-.001c.041-.181.068-.368.068-.561C11 7.12 9.88 6.001 8.498 6zM4.957 16.725l-.514 1.697-2.228 3.94-.074.124.002.002-.034.059-.007.015C2.035 22.7 2 22.849 2 23c0 .552.448 1 1 1 .32 0 .62-.153.809-.412h.002l.015-.024.002-.002 3.326-5.05-2.197-1.787z"/>
</svg>
