<svg xmlns="http://www.w3.org/2000/svg" width="17" height="16" viewBox="0 0 17 16">
    <path fill="#8F84B7" d="M7.652 0C6.554 0 5.651.87 5.58 1.951l-.685 3.425-1.318 3.61c-.023.034-.055.057-.098.057H.696c-.384 0-.696.312-.696.696v5.565c0 .384.312.696.696.696h1.391c.384 0 .696-.312.696-.696h2.73c1.145 0 2.176-.553 2.835-1.417.659.864 1.69 1.417 2.834 1.417h2.731c0 .384.312.696.696.696H16c.384 0 .696-.312.696-.696V9.74c0-.384-.312-.696-.696-.696H13.217c-.042 0-.074-.023-.097-.057l-1.318-3.61-.685-3.425C11.045.87 10.14 0 9.043 0c-.236 0-.478.045-.695.158C8.13.045 7.888 0 7.652 0zm-.024 1.402c.013.1.024.328.024.685V12.129c-.194 1.035-1.082 1.784-2.138 1.784H2.783v-3.478h.695c.547 0 1.054-.297 1.322-.773l.029-.05 1.407-3.858.72-3.598v-.069c0-.382.294-.67.672-.685zm1.44 0c.377.015.671.303.671.685v.07l.72 3.597 1.408 3.857.028.05c.268.477.776.774 1.322.774h.696v3.478h-2.73c-1.057 0-1.946-.749-2.14-1.784V2.087c0-.357.012-.586.025-.685z"/>
</svg>
