<svg xmlns="http://www.w3.org/2000/svg" width="14" height="14" viewBox="0 0 14 14">
    <path fill="#8F84B7" d="M1.556 0C1.148 0 .732.143.437.438.144.732 0 1.147 0 1.556v10.888c0 .408.143.824.438 1.118.294.295.71.438 1.118.438h10.888c.408 0 .824-.143 1.118-.438.295-.294.438-.71.438-1.118V1.556c0-.408-.143-.824-.438-1.119C13.268.144 12.852 0 12.444 0H1.556zm0 1.556h10.888v10.888H1.556V1.556zM7 3.256c-1.635 0-2.406 1.41-2.406 2.577 0 2.1 1.467 2.407 2.09 2.407.699 0 1.182-.38 1.337-.535-.08.31-.161 1.774-2.26 1.774v-.073h-.074v1.167h.073c.857 0 3.646-.234 3.646-3.889v-.462c0-1.166-.54-2.965-2.406-2.965zm0 1.095c1.012 0 1.02 1.321 1.02 1.555v.632c-.154.155-.397.608-1.02.608-1.012 0-1.02-1.152-1.02-1.386 0-.234.087-1.41 1.02-1.41z"/>
</svg>
