<svg xmlns="http://www.w3.org/2000/svg" width="20" height="20" viewBox="0 0 20 20">
    <path fill="#4332A6" d="M7.666 0l-.49 2.523c-.824.311-1.581.747-2.244 1.291L2.508 2.98.172 7.02 2.113 8.71C2.04 9.167 2 9.592 2 10c0 .409.04.833.113 1.291v.002L.172 12.98l2.336 4.041 2.422-.834c.663.545 1.421.979 2.246 1.29L7.666 20h4.668l.49-2.523c.825-.311 1.58-.746 2.244-1.291l2.424.835 2.334-4.04-1.94-1.69c.075-.458.114-.883.114-1.291 0-.408-.039-.832-.113-1.29V8.71l1.941-1.69-2.336-4.04-2.422.833c-.663-.544-1.421-.978-2.246-1.289L12.334 0H7.666zm1.648 2h1.372l.388 2 1.043.395c.629.236 1.194.562 1.684.964l.863.707 1.922-.66.685 1.186-1.535 1.336.176 1.1v.001c.061.375.088.69.088.971s-.027.596-.088.97l-.178 1.1 1.536 1.336-.686 1.188-1.92-.662-.865.709c-.49.402-1.053.728-1.682.964h-.002L11.072 16l-.388 2h-1.37l-.388-2-1.043-.395c-.629-.236-1.194-.562-1.684-.964l-.863-.707-1.922.66-.685-1.186 1.537-1.338-.178-1.095v-.002C4.028 10.596 4 10.28 4 10s.027-.596.088-.97l.178-1.1-1.537-1.336.685-1.188 1.922.662.863-.709c.49-.402 1.055-.728 1.684-.964L8.926 4l.388-2zM10 6c-2.197 0-4 1.803-4 4s1.803 4 4 4 4-1.803 4-4-1.803-4-4-4zm0 2c1.111 0 2 .889 2 2s-.889 2-2 2-2-.889-2-2 .889-2 2-2z"/>
</svg>
