<svg xmlns="http://www.w3.org/2000/svg" width="17" height="16" viewBox="0 0 17 16">
    <path fill="#FFF" d="M7.792 0C6.674 0 5.754.87 5.68 1.951l-.698 3.425-1.342 3.61c-.024.034-.056.057-.1.057H.709c-.39 0-.708.312-.708.696v5.565c0 .384.317.696.708.696h1.417c.391 0 .708-.312.708-.696h2.781c1.166 0 2.215-.553 2.886-1.417.671.864 1.72 1.417 2.886 1.417h2.78c0 .384.318.696.709.696h1.417c.39 0 .708-.312.708-.696V9.74c0-.384-.317-.696-.708-.696h-2.834c-.043 0-.075-.023-.1-.057l-1.341-3.61-.698-3.425C11.246.87 10.326 0 9.21 0c-.242 0-.487.045-.709.158C8.278.045 8.033 0 7.792 0zm-.025 1.402c.013.1.025.328.025.685V12.129c-.198 1.035-1.102 1.784-2.178 1.784h-2.78v-3.478h.708c.556 0 1.073-.297 1.346-.773l.029-.05L6.35 5.753l.733-3.598v-.069c0-.382.3-.67.684-.685zm1.466 0c.385.015.684.303.684.685v.07l.733 3.597 1.433 3.857.03.05c.272.477.789.774 1.345.774h.709v3.478h-2.781c-1.076 0-1.98-.749-2.178-1.784V2.087c0-.357.012-.586.025-.685z"/>
</svg>
