<svg xmlns="http://www.w3.org/2000/svg" width="18" height="18" viewBox="0 0 18 18">
    <path fill="#FFF" fill-rule="evenodd" d="M9 0C4.032 0 0 4.032 0 9s4.032 9 9 9 9-4.032 9-9-4.032-9-9-9zm1.421 15.158H8.526v-1.895h1.895v1.895zm1.961-6.395l-.853.872c-.682.691-1.108 1.26-1.108 2.68H8.526v-.473c0-1.042.427-1.99 1.109-2.68l1.174-1.195c.351-.34.56-.814.56-1.335 0-1.043-.853-1.895-1.895-1.895s-1.895.852-1.895 1.895H5.684c0-2.094 1.696-3.79 3.79-3.79 2.093 0 3.79 1.696 3.79 3.79 0 .833-.342 1.591-.882 2.131z"/>
</svg>
