<svg xmlns="http://www.w3.org/2000/svg" width="14" height="20" viewBox="0 0 14 20">
    <path fill="#FFF" d="M7 0C5.067 0 3.5 1.433 3.5 3.2c0 1.767 1.567 3.2 3.5 3.2s3.5-1.433 3.5-3.2C10.5 1.433 8.933 0 7 0zM3.224 4.269c-.51.018-1.623.138-2.347.8-.965.882-.875 2.396-.875 2.396s1.656.082 2.62-.8c.966-.883.876-2.396.876-2.396s-.103-.006-.274 0zm7.278 0s-.09 1.513.875 2.396c.965.882 2.62.8 2.62.8s.09-1.514-.874-2.396c-.965-.882-2.62-.8-2.62-.8zM7 8.533c-1.9 0-3.57 1.192-4.031 2.877l-1.768 6.465c-.087.319-.008.656.213.915.22.259.56.41.92.41h9.333c.359 0 .698-.151.92-.41.22-.259.299-.596.212-.915l-1.768-6.465C10.57 9.725 8.901 8.533 7 8.533z"/>
</svg>
