<svg xmlns="http://www.w3.org/2000/svg" width="18" height="17" viewBox="0 0 18 17">
    <path fill="#FFF" d="M1.636 0C.734 0 0 .726 0 1.619v11.333c0 .893.734 1.619 1.636 1.619h6.546V9.022c0-1.404 1.145-2.546 2.553-2.546.432 0 .862.111 1.242.323l3.43 1.906.956.53V1.619C16.363.726 15.63 0 14.727 0H1.637zm.002 1.619h1.635v1.619H1.638V1.619zm11.453 0h1.636v1.619h-1.636V1.619zM1.636 4.857h1.637v1.619H1.636V4.857zm11.455 0h1.636v1.619h-1.636V4.857zM1.636 8.095h1.637v1.619H1.636V8.095zm9.07 0c-.467.015-.888.398-.888.927v7.051c0 .704.746 1.15 1.357.811l6.35-3.526c.633-.352.633-1.27 0-1.622l-6.35-3.526c-.153-.084-.313-.12-.469-.115zm-9.07 3.238h1.637v1.619H1.636v-1.619z"/>
</svg>
