<svg xmlns="http://www.w3.org/2000/svg" width="20" height="20" viewBox="0 0 20 20">
    <path fill="#4332A6" fill-rule="evenodd" d="M1.111 0C.498 0 0 .498 0 1.111v6.437c0 .494.598.743.948.393l1.274-1.274h8.89c.612 0 1.11-.498 1.11-1.111V1.11c0-.613-.498-1.111-1.11-1.111h-10zm13.333 1.111v4.445c0 .856-.333 1.63-.865 2.222h4.199l1.274 1.274c.35.35.948.101.948-.393V2.222c0-.613-.498-1.11-1.111-1.11h-4.445zM4.444 10c-1.227 0-2.222.995-2.222 2.222 0 1.228.995 2.222 2.222 2.222 1.228 0 2.223-.994 2.223-2.222 0-1.227-.995-2.222-2.223-2.222zm11.112 0c-1.228 0-2.223.995-2.223 2.222 0 1.228.995 2.222 2.223 2.222 1.227 0 2.222-.994 2.222-2.222 0-1.227-.995-2.222-2.222-2.222zM4.444 16.667C2.961 16.667 0 17.41 0 18.889v.555c0 .307.249.556.556.556h7.777c.307 0 .556-.249.556-.556v-.555c0-1.478-2.961-2.222-4.445-2.222zm11.112 0c-1.484 0-4.445.744-4.445 2.222v.555c0 .307.249.556.556.556h7.777c.307 0 .556-.249.556-.556v-.555c0-1.478-2.961-2.222-4.444-2.222z"/>
</svg>
