<?xml version="1.0" encoding="UTF-8"?>
<svg width="20px" height="20px" viewBox="0 0 20 20" version="1.1" xmlns="http://www.w3.org/2000/svg" xmlns:xlink="http://www.w3.org/1999/xlink">
    <!-- Generator: sketchtool 62 (101010) - https://sketch.com -->
    <title>2BC2E8B4-85D3-41A7-AEFC-5E842D990CBE</title>
    <desc>Created with sketchtool.</desc>
    <g id="Page-1" stroke="none" stroke-width="1" fill="none" fill-rule="evenodd">
        <g id="04_-Content-Repository" transform="translate(-1044.000000, -121.000000)" fill="#8F84B7" fill-rule="nonzero">
            <g id="Library" transform="translate(1044.000000, 121.000000)">
                <g id="icons8-books">
                    <path d="M2.5,0 C1.11916667,0 0,1.11916667 0,2.5 L0,13.3333333 C0,13.5551306 0.0884917514,13.7677624 0.24576825,13.9241533 C0.539796333,14.9774742 1.35863242,15.8333333 2.5,15.8333333 L4.16666667,15.8333333 L4.16666667,14.1666667 L2.5,14.1666667 C2.0291415,14.1666667 1.66666667,13.8041917 1.66666667,13.3333333 C1.66666667,12.9522467 1.909186,12.6532175 2.249349,12.5488283 L4.16666667,12.7083333 L4.16666667,5.83333333 C4.16666667,3.9925 5.65916667,2.5 7.5,2.5 L13.3333333,2.5 L13.3333333,1.66666667 C13.3333333,0.745833333 12.5875,0 11.6666667,0 L2.5,0 Z M8.33333333,4.16666667 C6.9525,4.16666667 5.83333333,5.28583333 5.83333333,6.66666667 L5.83333333,17.5 C5.83333333,17.7217972 5.92182514,17.9344291 6.07910167,18.09082 C6.37313,19.1441408 7.19196583,20.0000837 8.33333333,20.0000837 L18.3333333,20.0000837 C18.6338633,20.0042502 18.9134011,19.8463539 19.0649064,19.5867726 C19.2164117,19.3271913 19.2164117,19.006142 19.0649064,18.7465607 C18.9134011,18.4869794 18.6338633,18.3290831 18.3333333,18.3333333 L8.33333333,18.3333333 C7.862475,18.3333333 7.5,17.9708583 7.5,17.5 C7.5,17.0291417 7.862475,16.6666667 8.33333333,16.6666667 L17.5,16.6666667 C18.4208333,16.6666667 19.1666667,15.9208333 19.1666667,15 L19.1666667,5.83333333 C19.1666667,4.9125 18.4208333,4.16666667 17.5,4.16666667 L8.33333333,4.16666667 Z M10,7.5 L15,7.5 C15.46,7.5 15.8333333,7.87333333 15.8333333,8.33333333 C15.8333333,8.79333333 15.46,9.16666667 15,9.16666667 L10,9.16666667 C9.54,9.16666667 9.16666667,8.79333333 9.16666667,8.33333333 C9.16666667,7.87333333 9.54,7.5 10,7.5 Z" id="Shape"></path>
                </g>
            </g>
        </g>
    </g>
</svg>