<?xml version="1.0" encoding="UTF-8"?>
<svg width="16px" height="20px" viewBox="0 0 16 20" version="1.1" xmlns="http://www.w3.org/2000/svg" xmlns:xlink="http://www.w3.org/1999/xlink">
    <!-- Generator: sketchtool 62 (101010) - https://sketch.com -->
    <title>94680386-90CB-433A-A35B-A6B6B3A03129</title>
    <desc>Created with sketchtool.</desc>
    <g id="Page-1" stroke="none" stroke-width="1" fill="none" fill-rule="evenodd">
        <g id="04_-Content-Repository" transform="translate(-1186.000000, -121.000000)" fill="#FFFFFF" fill-rule="nonzero">
            <g id="Repository-Selected" transform="translate(1186.000000, 121.000000)">
                <g id="icons8-repository" transform="translate(0.000000, 0.000000)">
                    <path d="M1.9047619,0 C0.852380952,0 0,0.852380952 0,1.9047619 L0,17.1428571 C0,18.1952381 0.852380952,19.047619 1.9047619,19.047619 L1.9047619,16.1904762 C1.9047619,14.612381 3.18380952,13.3333333 4.76190476,13.3333333 L8.57142857,13.3333333 C10.1495238,13.3333333 11.4285714,14.612381 11.4285714,16.1904762 L11.4285714,19.047619 L13.3333333,19.047619 C14.3857143,19.047619 15.2380952,18.1952381 15.2380952,17.1428571 L15.2380952,1.9047619 C15.2380952,0.852380952 14.3857143,0 13.3333333,0 L1.9047619,0 Z M3.33333333,1.9047619 L4.28571429,1.9047619 C4.54857143,1.9047619 4.76190476,2.11809524 4.76190476,2.38095238 L4.76190476,3.33333333 C4.76190476,3.59619048 4.54857143,3.80952381 4.28571429,3.80952381 L3.33333333,3.80952381 C3.07047619,3.80952381 2.85714286,3.59619048 2.85714286,3.33333333 L2.85714286,2.38095238 C2.85714286,2.11809524 3.07047619,1.9047619 3.33333333,1.9047619 Z M3.33333333,5.71428571 L4.28571429,5.71428571 C4.54857143,5.71428571 4.76190476,5.92761905 4.76190476,6.19047619 L4.76190476,7.14285714 C4.76190476,7.40571429 4.54857143,7.61904762 4.28571429,7.61904762 L3.33333333,7.61904762 C3.07047619,7.61904762 2.85714286,7.40571429 2.85714286,7.14285714 L2.85714286,6.19047619 C2.85714286,5.92761905 3.07047619,5.71428571 3.33333333,5.71428571 Z M3.33333333,9.52380952 L4.28571429,9.52380952 C4.54857143,9.52380952 4.76190476,9.73714286 4.76190476,10 L4.76190476,10.952381 C4.76190476,11.2152381 4.54857143,11.4285714 4.28571429,11.4285714 L3.33333333,11.4285714 C3.07047619,11.4285714 2.85714286,11.2152381 2.85714286,10.952381 L2.85714286,10 C2.85714286,9.73714286 3.07047619,9.52380952 3.33333333,9.52380952 Z M4.76190476,15.2380952 C4.23619048,15.2380952 3.80952381,15.6647619 3.80952381,16.1904762 L3.80952381,19.4066219 C3.80952381,19.834241 4.2581399,20.1114438 4.64099705,19.9200152 L6.66666667,18.5714286 L8.69233619,19.9200152 C9.07519333,20.1114438 9.52380952,19.834241 9.52380952,19.4066219 L9.52380952,16.1904762 C9.52380952,15.6647619 9.09714286,15.2380952 8.57142857,15.2380952 L4.76190476,15.2380952 Z" id="Shape"></path>
                </g>
            </g>
        </g>
    </g>
</svg>