<svg xmlns="http://www.w3.org/2000/svg" width="16" height="20" viewBox="0 0 16 20">
    <path fill="#489E2D" d="M1.905 0C.852 0 0 .852 0 1.905v15.238c0 1.052.852 1.905 1.905 1.905V16.19c0-1.578 1.279-2.857 2.857-2.857h3.81c1.578 0 2.857 1.28 2.857 2.857v2.858h1.904c1.053 0 1.905-.853 1.905-1.905V1.905C15.238.852 14.386 0 13.333 0H1.905zm1.428 1.905h.953c.263 0 .476.213.476.476v.952c0 .263-.213.477-.476.477h-.953c-.263 0-.476-.214-.476-.477v-.952c0-.263.213-.476.476-.476zm0 3.81h.953c.263 0 .476.213.476.475v.953c0 .263-.213.476-.476.476h-.953c-.263 0-.476-.213-.476-.476V6.19c0-.262.213-.476.476-.476zm0 3.809h.953c.263 0 .476.213.476.476v.952c0 .263-.213.477-.476.477h-.953c-.263 0-.476-.214-.476-.477V10c0-.263.213-.476.476-.476zm1.429 5.714c-.526 0-.952.427-.952.952v3.217c0 .427.448.704.831.513l2.026-1.349 2.025 1.349c.383.191.832-.086.832-.513V16.19c0-.525-.427-.952-.953-.952h-3.81z"/>
</svg>
