<?xml version="1.0" encoding="UTF-8"?>
<svg width="18px" height="18px" viewBox="0 0 18 18" version="1.1" xmlns="http://www.w3.org/2000/svg" xmlns:xlink="http://www.w3.org/1999/xlink">
    <!-- Generator: sketchtool 62 (101010) - https://sketch.com -->
    <title>9707E689-BCBA-4030-B0E1-98862B1FA0E3</title>
    <desc>Created with sketchtool.</desc>
    <g id="Page-1" stroke="none" stroke-width="1" fill="none" fill-rule="evenodd">
        <g id="04_-Content-Repository" transform="translate(-960.000000, -730.000000)" fill="#4CAF50" fill-rule="nonzero">
            <g id="Curated" transform="translate(960.000000, 730.000000)">
                <g id="icons8-verified_account">
                    <path d="M17.3052,9 L17.865,7.272 C18.2835,5.9787 17.7012,4.572 16.4907,3.9537 L14.8734,3.1275 L14.0472,1.5102 C13.4289,0.2997 12.0222,-0.2835 10.7289,0.1359 L9,0.6948 L7.272,0.135 C5.9787,-0.2835 4.572,0.2988 3.9537,1.5093 L3.1266,3.1266 L1.5093,3.9537 C0.2988,4.572 -0.2835,5.9787 0.135,7.272 L0.6948,9 L0.135,10.728 C-0.2835,12.0213 0.2988,13.428 1.5093,14.0463 L3.1266,14.8725 L3.9528,16.4898 C4.5711,17.7003 5.9778,18.2835 7.2711,17.8641 L9,17.3052 L10.728,17.865 C12.0213,18.2835 13.428,17.7012 14.0463,16.4907 L14.8725,14.8734 L16.4898,14.0472 C17.7003,13.4289 18.2835,12.0222 17.8641,10.7289 L17.3052,9 Z M8.1,12.9726 L4.7637,9.6363 L6.0363,8.3637 L8.1,10.4274 L12.8637,5.6637 L14.1363,6.9363 L8.1,12.9726 Z" id="Shape"></path>
                </g>
            </g>
        </g>
    </g>
</svg>